<?xml version="1.0" encoding="utf-8"?>
<!-- Generator: Adobe Illustrator 15.1.0, SVG Export Plug-In . SVG Version: 6.00 Build 0)  -->
<!DOCTYPE svg PUBLIC "-//W3C//DTD SVG 1.1//EN" "http://www.w3.org/Graphics/SVG/1.1/DTD/svg11.dtd">
<svg version="1.1" id="Layer_1" xmlns="http://www.w3.org/2000/svg" xmlns:xlink="http://www.w3.org/1999/xlink" x="0px" y="0px"
	 width="255.25px" height="52px" viewBox="0 0 255.25 52" enable-background="new 0 0 255.25 52" xml:space="preserve">
<g>
	<g>
		<polygon fill="#BF8B59" points="85.848,21.499 78.913,12.377 78.913,21.499 73.459,21.499 73.459,2.745 78.256,2.745 
			85.437,12.166 85.437,2.745 90.892,2.745 90.892,21.499 		"/>
		<path fill="#BF8B59" d="M102.052,21.669c-2.74,0-5.083-0.93-6.964-2.765c-1.885-1.841-2.842-4.162-2.842-6.893
			c0-2.73,0.958-5.05,2.843-6.892c1.881-1.836,4.223-2.767,6.963-2.767c2.739,0,5.082,0.931,6.963,2.767
			c1.887,1.842,2.842,4.161,2.842,6.892c0,2.731-0.956,5.05-2.841,6.891C107.134,20.739,104.791,21.669,102.052,21.669z
			 M102.063,7.317c-1.199,0-2.183,0.442-3.008,1.35c-0.846,0.929-1.257,2.027-1.257,3.357c0,1.328,0.41,2.422,1.255,3.343
			c0.825,0.902,1.811,1.34,3.011,1.34c1.201,0,2.186-0.438,3.011-1.34c0.844-0.921,1.255-2.016,1.255-3.343
			c0-1.329-0.411-2.426-1.257-3.357C104.248,7.759,103.263,7.317,102.063,7.317z"/>
		<polygon fill="#BF8B59" points="117.787,21.499 110.249,2.745 116.149,2.745 119.957,12.262 123.764,2.745 129.663,2.745 
			122.125,21.499 		"/>
		<polygon fill="#BF8B59" points="131.061,21.499 131.061,2.745 145.04,2.745 145.04,7.782 136.514,7.782 136.514,9.676 
			144.182,9.676 144.182,14.567 136.514,14.567 136.514,16.486 145.309,16.486 145.309,21.499 		"/>
		<polygon fill="#BF8B59" points="146.835,21.499 146.835,2.745 152.288,2.745 152.288,16.461 159.587,16.461 159.587,21.499 		"/>
		<polygon fill="#BF8B59" points="161.596,21.499 161.596,7.684 156.746,7.684 156.746,2.745 171.898,2.745 171.898,7.684 
			167.05,7.684 167.05,21.499 		"/>
		<polygon fill="#BF8B59" points="179.632,21.499 179.632,14.138 173.111,2.745 179.13,2.745 182.359,8.304 185.588,2.745 
			191.604,2.745 185.086,14.138 185.086,21.499 		"/>
		<polygon fill="#BF8B59" points="78.521,44.359 78.521,30.545 73.672,30.545 73.672,25.605 88.825,25.605 88.825,30.545 
			83.975,30.545 83.975,44.359 		"/>
		<polygon fill="#BF8B59" points="90.556,44.359 90.556,25.605 104.534,25.605 104.534,30.645 96.01,30.645 96.01,32.536 
			103.676,32.536 103.676,37.428 96.01,37.428 96.01,39.348 104.802,39.348 104.802,44.359 		"/>
		<path fill="#BF8B59" d="M115.191,44.557c-2.845,0-5.228-0.918-7.085-2.73c-1.861-1.817-2.806-4.137-2.806-6.891
			c0-2.758,0.96-5.092,2.855-6.941c1.889-1.845,4.227-2.779,6.951-2.779c3.039,0,5.618,1.171,7.666,3.485l0.477,0.539l-3.494,3.963
			l-0.607-0.755c-1.055-1.312-2.322-1.951-3.871-1.951c-1.235,0-2.261,0.391-3.133,1.193c-0.853,0.785-1.267,1.83-1.267,3.195
			c0,1.381,0.394,2.445,1.206,3.256c0.812,0.813,1.768,1.207,2.924,1.207c1.632,0,2.93-0.63,3.969-1.924l0.579-0.722l3.622,3.729
			L122.673,41C120.579,43.357,118.06,44.557,115.191,44.557z"/>
		<polygon fill="#BF8B59" points="135.462,44.359 135.462,37.624 130.284,37.624 130.284,44.359 124.83,44.359 124.83,25.605 
			130.284,25.605 130.284,32.757 135.462,32.757 135.462,25.605 140.915,25.605 140.915,44.359 		"/>
		<polygon fill="#BF8B59" points="155.639,44.359 148.704,35.238 148.704,44.359 143.251,44.359 143.251,25.605 148.047,25.605 
			155.229,35.027 155.229,25.605 160.682,25.605 160.682,44.359 		"/>
		<path fill="#BF8B59" d="M172.66,44.531c-2.74,0-5.083-0.932-6.965-2.768c-1.885-1.842-2.842-4.16-2.842-6.893
			c0-2.73,0.957-5.049,2.842-6.891c1.88-1.836,4.225-2.768,6.965-2.768c2.738,0,5.083,0.931,6.961,2.768
			c1.888,1.84,2.842,4.158,2.842,6.891s-0.954,5.051-2.842,6.893C177.74,43.6,175.396,44.531,172.66,44.531z M172.672,30.178
			c-1.199,0-2.184,0.441-3.01,1.35c-0.846,0.93-1.258,2.027-1.258,3.356s0.412,2.421,1.257,3.343c0.825,0.902,1.812,1.34,3.011,1.34
			c1.201,0,2.184-0.438,3.012-1.34c0.844-0.92,1.254-2.014,1.254-3.343s-0.412-2.427-1.258-3.356
			C174.855,30.619,173.871,30.178,172.672,30.178z"/>
		<polygon fill="#BF8B59" points="183.818,44.359 183.818,25.605 189.271,25.605 189.271,39.322 196.574,39.322 196.574,44.359 		
			"/>
		<path fill="#BF8B59" d="M206.664,44.531c-2.739,0-5.082-0.932-6.962-2.768c-1.888-1.841-2.843-4.16-2.843-6.893
			s0.957-5.051,2.843-6.891c1.881-1.836,4.223-2.768,6.962-2.768c2.74,0,5.083,0.931,6.964,2.768c1.886,1.84,2.843,4.16,2.843,6.891
			s-0.957,5.051-2.843,6.893C211.747,43.602,209.404,44.531,206.664,44.531z M206.675,30.178c-1.198,0-2.183,0.441-3.006,1.35
			c-0.847,0.93-1.259,2.027-1.259,3.356s0.41,2.423,1.257,3.343c0.824,0.902,1.808,1.34,3.008,1.34c1.202,0,2.188-0.438,3.013-1.34
			c0.846-0.92,1.256-2.016,1.256-3.343c0-1.329-0.412-2.426-1.258-3.356C208.859,30.619,207.876,30.178,206.675,30.178z"/>
		<path fill="#BF8B59" d="M228.188,44.557c-2.725,0-5.047-0.918-6.901-2.73c-1.864-1.817-2.808-4.137-2.808-6.891
			c0-2.758,0.961-5.092,2.854-6.941c1.891-1.845,4.201-2.779,6.867-2.779c2.65,0,4.988,0.884,6.949,2.633l0.537,0.479l-2.914,4.211
			l-0.688-0.6c-0.692-0.604-1.325-1.021-1.883-1.239c-0.546-0.216-1.149-0.324-1.794-0.324c-1.241,0-2.254,0.407-3.1,1.246
			c-0.844,0.835-1.252,1.925-1.252,3.325c0,1.406,0.391,2.49,1.198,3.31c0.802,0.818,1.729,1.214,2.834,1.214
			c0.97,0,1.806-0.15,2.491-0.445v-5.016h5.479v7.202l-0.209,0.233C233.996,43.508,231.418,44.557,228.188,44.557z"/>
		<polygon fill="#BF8B59" points="241.658,44.359 241.658,37 235.141,25.605 241.156,25.605 244.385,31.165 247.615,25.605 
			253.632,25.605 247.113,37 247.113,44.359 		"/>
	</g>
	<polygon fill="#BF8B59" points="36.033,15.812 36.033,24.546 42.136,21.357 42.143,34.455 29.999,40.969 29.999,19.008 
		2.925,4.573 2.925,36.061 11.156,40.455 11.209,18.359 21.705,24.004 21.652,46.1 29.935,50.462 29.935,50.497 29.966,50.479 
		29.999,50.497 29.999,50.462 50.56,39.532 50.551,17.526 56.966,14.184 56.966,4.573 	"/>
</g>
</svg>
